<!--
Licensed under the Apache License, Version 2.0 (the "License");
you may not use this file except in compliance with the License.
You may obtain a copy of the License at

    http://www.apache.org/licenses/LICENSE-2.0

Unless required by applicable law or agreed to in writing, software
distributed under the License is distributed on an "AS IS" BASIS,
WITHOUT WARRANTIES OR CONDITIONS OF ANY KIND, either express or implied.
See the License for the specific language governing permissions and
limitations under the License.
-->
<svg height="1024" width="896" xmlns="http://www.w3.org/2000/svg">
  <path d="M128 768h256v64H128v-64z m320-384H128v64h320v-64z m128 192V448L384 640l192 192V704h320V576H576z m-288-64H128v64h160v-64zM128 704h160v-64H128v64z m576 64h64v128c-1 18-7 33-19 45s-27 18-45 19H64c-35 0-64-29-64-64V192c0-35 29-64 64-64h192C256 57 313 0 384 0s128 57 128 128h192c35 0 64 29 64 64v320h-64V320H64v576h640V768zM128 256h512c0-35-29-64-64-64h-64c-35 0-64-29-64-64s-29-64-64-64-64 29-64 64-29 64-64 64h-64c-35 0-64 29-64 64z" />
</svg>
