<?xml version="1.0" standalone="no"?>
<!DOCTYPE svg PUBLIC "-//W3C//DTD SVG 20010904//EN"
 "http://www.w3.org/TR/2001/REC-SVG-20010904/DTD/svg10.dtd">
<svg version="1.0" xmlns="http://www.w3.org/2000/svg"
 width="260.000000pt" height="260.000000pt" viewBox="0 0 260.000000 260.000000"
 preserveAspectRatio="xMidYMid meet">
<metadata>
Created by potrace 1.11, written by Peter Selinger 2001-2013
</metadata>
<g transform="translate(0.000000,260.000000) scale(0.100000,-0.100000)"
fill="#000000" stroke="none">
<path d="M1809 2595 c-2 -2 -20 -6 -39 -9 -72 -12 -94 -17 -154 -38 -280 -96
-414 -225 -835 -807 -375 -518 -486 -779 -475 -1121 3 -122 5 -135 28 -215 46
-155 133 -259 291 -345 85 -47 138 -58 257 -54 101 3 129 6 196 18 17 3 47 8
65 11 64 11 67 13 63 54 -2 21 -1 42 3 47 3 5 44 27 90 49 88 42 226 134 249
166 12 17 93 65 100 60 1 -1 26 2 55 8 123 26 183 12 213 -47 11 -20 20 -39
21 -40 5 -10 164 111 223 168 116 112 249 360 334 621 28 89 73 266 81 324 3
22 9 67 14 100 14 91 6 349 -13 430 -24 108 -27 115 -68 193 -107 204 -259
343 -443 407 -44 15 -245 31 -256 20z m-104 -655 c11 -5 17 -9 14 -9 -121 -14
-306 -71 -414 -130 -99 -53 -286 -192 -420 -311 -62 -55 -313 -307 -388 -389
-37 -40 -67 -70 -67 -66 0 3 21 39 46 78 142 220 343 428 597 618 110 82 159
112 267 164 22 10 109 34 175 48 36 8 170 6 190 -3z m-15 -451 c-19 -11 -54
-32 -77 -47 -24 -15 -96 -61 -160 -102 -65 -40 -120 -76 -123 -80 -3 -3 -57
-40 -120 -82 -287 -193 -731 -520 -767 -566 -11 -13 -13 -13 -13 -1 0 28 266
274 435 403 200 152 319 236 333 236 6 0 12 4 14 8 7 19 353 202 381 202 8 0
17 3 21 8 9 9 87 41 101 41 6 0 -6 -9 -25 -20z m102 -417 c-34 -56 -146 -186
-237 -275 -143 -141 -437 -334 -642 -422 -94 -40 -252 -89 -261 -81 -2 3 3 9
13 12 20 8 180 100 350 202 150 89 440 281 495 326 54 45 153 134 235 210 33
31 61 56 62 56 2 0 -5 -13 -15 -28z m160 -325 c-23 -45 -56 -98 -72 -117 -56
-64 -134 -139 -180 -172 -40 -29 -35 -21 41 63 84 93 190 229 226 289 9 16 19
27 22 25 2 -3 -14 -42 -37 -88z"/>
<path d="M587 1712 c-34 -37 -49 -90 -62 -207 l-6 -60 76 102 77 102 -23 41
c-25 44 -38 49 -62 22z"/>
<path d="M175 374 c-50 -41 -109 -94 -132 -119 -75 -77 -54 -84 76 -26 47 21
110 46 139 55 56 19 57 21 42 61 -5 14 -12 40 -16 58 -3 18 -8 35 -12 39 -4 3
-47 -27 -97 -68z"/>
<path d="M1734 378 c-79 -12 -140 -40 -187 -84 -69 -66 -127 -106 -223 -153
-81 -39 -90 -46 -86 -67 2 -13 9 -25 16 -25 6 -1 116 -2 245 -3 205 -2 346 5
358 18 8 7 40 226 33 226 -3 0 -10 -4 -15 -9 -21 -19 -339 -42 -320 -22 9 8
91 33 160 47 59 13 156 15 169 5 23 -19 27 3 7 36 -15 24 -26 30 -55 31 -20 1
-40 3 -44 5 -4 2 -30 0 -58 -5z m109 -207 c19 -19 -8 -33 -75 -38 -75 -5 -278
-9 -278 -6 0 13 170 58 245 65 38 4 94 -7 108 -21z"/>
</g>
</svg>
